<?xml version="1.0" encoding="UTF-8" standalone="no"?>
<svg width="22px" height="22px" viewBox="0 0 22 22" version="1.1" xmlns="http://www.w3.org/2000/svg" xmlns:xlink="http://www.w3.org/1999/xlink">
    <!-- Generator: Sketch 39 (31667) - http://www.bohemiancoding.com/sketch -->
    <title>Password_icon</title>
    <desc>Created with Sketch.</desc>
    <defs></defs>
    <g id="Page-1" stroke="none" stroke-width="1" fill="none" fill-rule="evenodd">
        <g id="Client-Detail---Passwords" transform="translate(-322.000000, -396.000000)">
            <g id="Content-Area" transform="translate(282.000000, 152.000000)">
                <g id="Document-Icons" transform="translate(41.000000, 45.000000)">
                    <g id="Password_icon" transform="translate(0.000000, 200.000000)">
                        <path d="M20,5.71428571 C20,2.56333333 17.4366667,0.000476190476 14.2857143,0.000476190476 L2.85714286,0 C2.6347619,0 2.45857143,0.0204761905 2.3152381,0.0533333333 C0.997142857,0.306666667 0,1.4647619 0,2.85714286 L0,17.1428571 C0,18.7209524 1.27952381,20 2.85714286,20 L17.1428571,20 C18.6433333,20 19.8709524,18.8433333 19.9885714,17.3733333 L19.9909524,17.3733333 C19.9961905,17.3014286 20,17.2266667 20,17.1428571 L20,5.71428571 L20,5.71428571 Z M19.5432558,4.65116279 L16.744186,4.65116279 C15.7181395,4.65116279 14.8837209,3.81674419 14.8837209,2.79069767 L14.8837209,0" id="Fill-424" stroke="#CCC7C8"></path>
                        <path d="M3.61189457,16.7645084 C3.08243411,16.1953384 3.10770381,15.2766042 3.66845057,14.7158574 L6.80550381,11.5788042 C7.20079418,11.1835138 7.36986053,10.620962 7.25614686,10.0746551 C6.97878178,8.7413774 7.38730866,7.37139846 8.34876073,6.40994639 C9.93052386,4.8275816 12.509237,4.83299654 14.0819752,6.45507086 C15.575896,7.99531948 15.6005641,10.4302359 14.1361246,11.9981609 C13.1397762,13.0655051 11.7228679,13.4559822 10.3992167,13.1972685 C9.78371891,13.0781399 9.25425845,13.2646544 8.68990173,13.8284095 C8.54911338,13.9691978 8.36079392,14.0474136 8.15983961,14.0474136 L7.92579402,14.0474136 L7.88307618,14.3247786 C7.88307618,14.5702558 7.70378162,14.8145296 7.6087194,14.9095918 C7.46732939,15.0509818 7.27900993,15.1291975 7.07865728,15.1291975 L6.87288969,15.1304009 C6.84401003,15.1310025 6.81633368,15.1424341 6.79708058,15.1616872 L6.27243339,15.685131 C6.25257862,15.7049858 6.24174875,15.7326621 6.24114709,15.7615418 L6.23753713,15.9757326 C6.23753713,16.167662 6.15751641,16.3607948 6.01793137,16.5003798 L5.71589825,16.8024129 C5.12567016,17.3938443 4.17083635,17.3649647 3.61189457,16.7645084 L3.61189457,16.7645084 Z M8.77413407,6.83531974 C7.95647866,7.65297516 7.60932106,8.81778817 7.84517163,9.95251821 C8.00039981,10.6973728 7.77056584,11.4650905 7.23087716,12.0041775 L4.09382392,15.1418324 C3.75930118,15.4757535 3.74064973,16.0196538 4.05230941,16.3541765 C4.37359564,16.6995291 4.95720547,16.7109607 5.2905249,16.3770396 L5.59255803,16.0750065 C5.62023437,16.0473301 5.63587752,16.0094256 5.63587752,15.9709193 L5.63948748,15.7495086 C5.64369909,15.5635958 5.71710157,15.3909195 5.84645838,15.2603593 L6.37110557,14.7369155 C6.50046239,14.6063553 6.68216359,14.5305462 6.86807641,14.5287412 L7.07625064,14.5275379 C7.11836681,14.5275379 7.15566971,14.5118948 7.18334605,14.4842184 C7.22666554,14.4408989 7.27660329,14.3518533 7.28201823,14.3169571 L7.28141657,14.0901314 C7.28141657,13.7345506 7.57081484,13.4457539 7.92579402,13.4457539 L8.15983961,13.4457539 C8.2001508,13.4457539 8.23625038,13.4307124 8.26392672,13.4030361 C8.96606349,12.701501 9.69286831,12.4457957 10.5141337,12.6064388 C11.6813533,12.8344678 12.8900875,12.4512106 13.6963114,11.5872274 C14.9411451,10.2539497 14.9206887,8.18363894 13.6499836,6.87382596 C12.3136976,5.4966271 10.1218516,5.4876022 8.77413407,6.83531974 L8.77413407,6.83531974 Z M10.6958349,9.75216556 C10.119445,9.17697897 10.1266649,8.24621154 10.6958349,7.67824486 C11.2493617,7.12411636 12.2162287,7.12411636 12.7697556,7.67824486 C13.3389256,8.24621154 13.3461455,9.17697897 12.7697556,9.75216556 C12.1975773,10.3249455 11.2686148,10.3249455 10.6958349,9.75216556 L10.6958349,9.75216556 Z M11.1212082,8.10361821 C10.7830755,8.44175091 10.7830755,8.98865951 11.1212082,9.32679221 C11.4479094,9.65349338 12.0176811,9.65349338 12.3443822,9.32679221 C12.6825149,8.98865951 12.6825149,8.44175091 12.3443822,8.10361821 C12.0062495,7.76548551 11.4593409,7.76548551 11.1212082,8.10361821 L11.1212082,8.10361821 Z" id="key_icon" fill="#CCC7C8"></path>
                    </g>
                </g>
            </g>
        </g>
    </g>
</svg>