<?xml version="1.0" encoding="utf-8"?>
<!-- Generated by IcoMoon.io -->
<!DOCTYPE svg PUBLIC "-//W3C//DTD SVG 1.1//EN" "http://www.w3.org/Graphics/SVG/1.1/DTD/svg11.dtd">
<svg version="1.1" xmlns="http://www.w3.org/2000/svg" xmlns:xlink="http://www.w3.org/1999/xlink" width="752" height="80" viewBox="0 0 752 80">
<svg id="icon-XLSfile_icon" width="28" height="32" viewBox="0 0 28 32" x="0" y="0">
<path fill="#3aad73" d="M18 0h-16c-1.104 0-2 0.896-2 2v28c0 1.104 0.896 2 2 2h24c1.104 0 2-0.896 2-2v-20l-10-10z"></path>
<path fill="#434854" d="M18 0v8c0 1.104 0.896 2 2 2h8l-10-10z"></path>
<path opacity="0.15" fill="#000" d="M20 10l8 8v-8z"></path>
<path fill="#fff" d="M13 15h9v4h-9v-4z"></path>
<path fill="#fff" d="M6 15h6v4h-6v-4z"></path>
<path fill="#fff" d="M13 20h9v3h-9v-3z"></path>
<path fill="#fff" d="M6 20h6v3h-6v-3z"></path>
<path fill="#fff" d="M13 24h9v3h-9v-3z"></path>
<path fill="#fff" d="M6 24h6v3h-6v-3z"></path>
</svg>
<svg id="icon-Verified_icon" width="32" height="32" viewBox="0 0 32 32" x="48" y="0">
<path fill="#21c064" d="M15.914 0c8.789 0 15.914 7.014 15.914 15.666s-7.125 15.666-15.914 15.666c-8.789 0-15.914-7.014-15.914-15.666s7.125-15.666 15.914-15.666v0z"></path>
<path fill="#fff" d="M14.323 17.921l6.916-6.809 1.688 1.662-8.36 8.23-0.245-0.241-0.244 0.241-5.177-5.096 1.688-1.662 3.734 3.676z"></path>
</svg>
<svg id="icon-PhotoFile_icon" width="28" height="32" viewBox="0 0 28 32" x="96" y="0">
<path fill="#469fcc" d="M18 0h-16c-1.104 0-2 0.896-2 2v28c0 1.104 0.896 2 2 2h24c1.104 0 2-0.896 2-2v-20l-10-10z"></path>
<path fill="#434854" d="M18 0v8c0 1.104 0.896 2 2 2h8l-10-10z"></path>
<path fill="#fff" d="M19 15c0 1.657-1.343 3-3 3s-3-1.343-3-3c0-1.657 1.343-3 3-3s3 1.343 3 3z"></path>
<path opacity="0.15" fill="#000" d="M20 10l8 8v-8z"></path>
<path fill="#fff" d="M4 28h20l0.002-3.586-2.83-2.829c-0.781-0.78-2.047-0.78-2.828 0l-2.93 2.93-5.929-5.929c-0.781-0.781-2.047-0.781-2.828 0l-2.661 2.66 0.004 6.754z"></path>
</svg>
<svg id="icon-PDFfile_icon" width="28" height="32" viewBox="0 0 28 32" x="144" y="0">
<path fill="#ef4d4d" d="M18 0h-16c-1.104 0-2 0.896-2 2v28c0 1.104 0.896 2 2 2h24c1.104 0 2-0.896 2-2v-20l-10-10z"></path>
<path fill="#434854" d="M18 0v8c0 1.104 0.896 2 2 2h8l-10-10z"></path>
<path opacity="0.15" fill="#000" d="M20 10l8 8v-8z"></path>
<path fill="#fff" d="M7.203 23.512c-1.708 1.276-2.884 3.088-2.42 3.371l-0.405-0.204c-0.235-0.286 0.298-1.823 2.825-3.167v0z"></path>
<path fill="#fff" d="M20.037 22.082c0.875-1.862-6.323-1.582-11.582 0.859 4.094-1.577 11.669-2.256 11.582-0.859v0z"></path>
<path fill="#fff" d="M11.895 12.165c0.196-1.034-0.309-0.998-0.451-0.998l-0.319-0.003c-0.176 0-0.334 0.141-0.411 0.428-0.499 1.861 0.406 6.586 2.946 8.772 2.243 1.93 6.147 2.813 6.304 1.88-0.812 0.39-3.859-0.591-5.908-2.223-2.421-1.988-3.457-6.89-2.935-8.423 0.052-0.153 0.178-0.331 0.234-0.371 0.218 0.109 0.481 0.376 0.54 0.937v0z"></path>
<path fill="#fff" d="M11.852 12.463c-0.223 1.098-0.32 3.691-2.437 7.953-2.274 4.578-3.934 6.713-5.038 6.263l0.395 0.203c0.865 0.442 2.459-1.012 5.103-6.105 2.036-3.923 1.926-5.942 1.977-8.313v0z"></path>
</svg>
<svg id="icon-DocFile_icon" width="32" height="32" viewBox="0 0 32 32" x="192" y="0">
<path fill="#eaeaea" d="M22 0h-16c-1.104 0-2 0.896-2 2v10h18c1.104 0 2 0.896 2 2v13c0 1.104-0.896 2-2 2h-18v1c0 1.104 0.896 2 2 2h24c1.104 0 2-0.896 2-2v-20l-10-10z"></path>
<path fill="#434854" d="M22 0v8c0 1.104 0.896 2 2 2h8l-10-10z"></path>
<path opacity="0.1" fill="#000" d="M24 10l8 8v-8z"></path>
<path fill="#469fcc" d="M22 26c0 0.553-0.447 1-1 1h-20c-0.553 0-1-0.447-1-1v-11c0-0.553 0.447-1 1-1h20c0.553 0 1 0.447 1 1v11z"></path>
<path fill="#fff" d="M6 17h-1.5c-0.276 0-0.5 0.224-0.5 0.5v6c0 0.276 0.224 0.5 0.5 0.5h1.5c1.104 0 2-0.896 2-2v-3c0-1.104-0.896-2-2-2v0zM6 23h-1v-5h1c0.553 0 1 0.447 1 1v3c0 0.553-0.447 1-1 1v0z"></path>
<path fill="#fff" d="M11 17v0c-1.104 0-2 0.896-2 2v3c0 1.104 0.896 2 2 2v0c1.104 0 2-0.896 2-2v-3c0-1.104-0.896-2-2-2v0zM12 22c0 0.553-0.447 1-1 1v0c-0.553 0-1-0.447-1-1v-3c0-0.553 0.447-1 1-1v0c0.553 0 1 0.447 1 1v3z"></path>
<path fill="#fff" d="M16 23v0c-0.553 0-1-0.447-1-1v-3c0-0.553 0.447-1 1-1v0c0.553 0 1 0.447 1 1h1c0-1.104-0.896-2-2-2v0c-1.104 0-2 0.896-2 2v3c0 1.104 0.896 2 2 2v0c1.104 0 2-0.896 2-2h-1c0 0.553-0.447 1-1 1v0z"></path>
</svg>
<svg id="icon-file-text2" width="32" height="32" viewBox="0 0 32 32" x="0" y="48">
<path fill="#444" d="M28.681 7.159c-0.694-0.947-1.662-2.053-2.724-3.116s-2.169-2.030-3.116-2.724c-1.612-1.182-2.393-1.319-2.841-1.319h-15.5c-1.378 0-2.5 1.121-2.5 2.5v27c0 1.378 1.122 2.5 2.5 2.5h23c1.378 0 2.5-1.122 2.5-2.5v-19.5c0-0.448-0.137-1.23-1.319-2.841zM24.543 5.457c0.959 0.959 1.712 1.825 2.268 2.543h-4.811v-4.811c0.718 0.556 1.584 1.309 2.543 2.268zM28 29.5c0 0.271-0.229 0.5-0.5 0.5h-23c-0.271 0-0.5-0.229-0.5-0.5v-27c0-0.271 0.229-0.5 0.5-0.5 0 0 15.499-0 15.5 0v7c0 0.552 0.448 1 1 1h7v19.5z"></path>
<path fill="#444" d="M23 26h-14c-0.552 0-1-0.448-1-1s0.448-1 1-1h14c0.552 0 1 0.448 1 1s-0.448 1-1 1z"></path>
<path fill="#444" d="M23 22h-14c-0.552 0-1-0.448-1-1s0.448-1 1-1h14c0.552 0 1 0.448 1 1s-0.448 1-1 1z"></path>
<path fill="#444" d="M23 18h-14c-0.552 0-1-0.448-1-1s0.448-1 1-1h14c0.552 0 1 0.448 1 1s-0.448 1-1 1z"></path>
</svg>
</svg>
